# xmcd
#
# Track frame offsets:
#	150
#	14117
#	30485
#	40570
#	54010
#	68010
#	80510
#	94857
#	105352
#	120235
#
# Disc length: 1752 seconds
#
# Revision: 5
# Processed by: cddbd v1.5.2PL0 Copyright (c) Steve Scherf et al.
# Submitted via: audiograbber 1.83.01
#
DISCID=6906d60a
DTITLE=Alan Jackson - Here In The Real World
DYEAR=1989
DGENRE=Country
TTITLE0=Ace Of Hearts
TTITLE1=Here In The Real World
TTITLE2=Blue Blooded Woman
TTITLE3=Wanted
TTITLE4=Chasin' That Neon Rainbow
TTITLE5=She Don't Get The Blues
TTITLE6=I'd Love You All Over Again
TTITLE7=Dog River Blues
TTITLE8=Home
TTITLE9=Short Sweet Ride
EXTD=
EXTT0=
EXTT1=
EXTT2=
EXTT3=
EXTT4=
EXTT5=
EXTT6=
EXTT7=
EXTT8=
EXTT9=
PLAYORDER=
